<svg xmlns="http://www.w3.org/2000/svg" width="220" height="72" viewBox="0 0 220 72" role="img" aria-labelledby="title">
  <title id="title">Ricons Group</title>
  <rect width="220" height="72" fill="none"/>
  <g transform="translate(16 13)">
    <path d="M0 7C0 3.1 3.1 0 7 0h32c9.4 0 17 7.6 17 17 0 7-4.2 13-10.2 15.6L58 46H43L31.8 34H13v12H0zm13 11v5h26c3.3 0 6-2.7 6-6s-2.7-6-6-6H13z" fill="#214b89"/>
    <path d="M0 39h31l7 7H0z" fill="#ed1c24"/>
  </g>
  <text x="88" y="36" fill="#214b89" font-family="Arial, Helvetica, sans-serif" font-size="25" font-weight="900" letter-spacing=".6">RICONS</text>
  <text x="90" y="51" fill="#ed1c24" font-family="Arial, Helvetica, sans-serif" font-size="9" font-weight="800" letter-spacing="2.2">GROUP</text>
</svg>
